<svg width="228" height="24" viewBox="0 0 60.325 6.35" xmlns="http://www.w3.org/2000/svg">
    <g>
        <path d="M31.334 3.005c0 1.002 1.333 1.336 1.915 1.08.562-.247.41-.524.446-1.047.024-.34.335-.557.242-.553-.68.035-.767.573-1.19.793-.878.457-1.164-.667-.887-.766.183-.066-.526-.708-.526.493m2.393-1.999c.262.219.206.674 1.095.586.483-.048.817-.588.304-.685-.262-.05-.445.213-.255.285.028.01.1.007.045.027-.146.051-.183-.037-.215-.032-.004 0-.008.003-.012.008-.105.121.137.118.07.133-.346.079-.246-.393-1.097-.417-.202-.006-.002.038.065.095m.8 1.276c.14 0 .226.071.311.15.295.275.391.278.37.301-.02.025-.143.015-.24 0-.418-.065-.77.315-.873.48-.035.055 0-.931.432-.931M32.582 4.5c.308-.01.66-.11.93.427.174.35-.223.852-.56.556-.172-.15.012-.409.173-.317.024.013.054.064.048.016-.014-.124-.122-.105-.132-.128 0-.004 0-.008.002-.013.077-.133.185.032.17-.021-.064-.215-.358-.055-.672-.273-.241-.168-.365-.381-.337-.366.157.084.3.122.378.12m2.924-2.22c2.207.002 1.39 1.441.8 1.086-.312-.187-.14-.521.13-.41.04.017.105.08.078.02-.068-.158-.22-.13-.243-.159-.003-.005-.003-.01 0-.017.06-.17.282.036.24-.033-.25-.387-2.587-.487-1.005-.486m-4.587-.6c-.294-.012-.658-.183-.656-.434.002-.266-.447-.438-.425-.454.163-.125.57-.039.587.06.002.016.05-.086-.036-.177-.35-.368.337-.294.477-.621.012-.028.03-.055.053-.056.025.001.041.028.054.056.14.327.827.253.477.621-.086.09-.039.193-.036.177.017-.099.424-.185.587-.06.022.016-.427.188-.424.454.002.25-.363.422-.658.434m-.822-.185c-.24-.241-.132-.677-1.05-.69-.5-.007-.903.48-.391.632.262.077.48-.158.294-.248-.027-.014-.102-.018-.042-.032.153-.034.182.056.214.055a.028.028 0 0 0 .014-.006c.121-.107-.126-.13-.055-.138.36-.037.204.409 1.073.526.205.028.007-.036-.057-.1m.822.476c-.55.011-1.013.314-1.472.195-.207-.054-.387-.387.023-.48.352-.079.413.127 1.45.126 1.036.001 1.097-.205 1.45-.125.41.092.23.425.023.479-.46.12-.923-.184-1.474-.195m-.414 1.033c0 1.002-1.333 1.336-1.915 1.08-.561-.247-.41-.524-.446-1.047-.024-.34-.335-.557-.242-.553.68.035.767.573 1.192.793.877.457 1.163-.667.885-.767-.182-.065.526-.707.526.494m.032-.835c.063-.04.219-.064.382-.068.164.004.32.028.383.068.075.047-.47.56-.201 1.362.147.437.59.637.805 1.014.286.503-.376 1.075-.376.803 0-.218-.23-.212-.16-.076.297.568-.246.78-.415 1.053-.01.015-.022.023-.036.024-.014 0-.025-.009-.035-.024-.168-.273-.713-.485-.415-1.053.072-.136-.16-.142-.16.076 0 .272-.662-.3-.375-.803.213-.377.657-.577.804-1.014.27-.801-.276-1.315-.2-1.362m-2.426-1.164c-.26.219-.206.674-1.095.586-.483-.048-.817-.588-.304-.685.262-.05.445.213.256.285-.028.01-.102.007-.045.027.145.051.183-.037.214-.032.004 0 .01.003.013.008.103.121-.139.118-.07.133.345.079.245-.393 1.097-.417.2-.006.002.038-.066.095m-.8 1.276c-.14 0-.226.07-.31.15-.297.275-.392.278-.371.301.02.025.142.015.24 0 .418-.065.77.315.873.48.035.055 0-.931-.431-.931M29.257 4.5c-.308-.01-.66-.11-.929.427-.174.35.222.852.558.556.172-.15-.01-.409-.171-.317-.025.013-.054.064-.049.016.014-.124.123-.105.132-.128.001-.004.001-.008-.002-.013-.075-.133-.184.032-.169-.022.064-.214.358-.054.672-.272.24-.168.365-.381.336-.366-.157.084-.3.122-.377.119m-2.925-2.218c-2.206 0-1.39 1.44-.798 1.085.31-.187.139-.521-.132-.41-.041.017-.105.08-.077.02.068-.158.22-.13.242-.159.004-.005.004-.01.001-.017-.06-.17-.283.036-.24-.033.25-.387 2.586-.487 1.004-.486M3.558 1.944c-.01-.322-.256-.593-.158-.861.043-.121.314-.226.39.013.064.206-.104.242-.103.848-.002.606.167.643.102.849-.075.24-.346.134-.389.013-.098-.269.148-.54.158-.862m-.839.243c-.814 0-1.086.78-.877 1.12.2.328.426.24.85.261.277.014.453.196.448.141-.027-.397-.464-.448-.643-.696-.372-.514.541-.68.622-.519.054.108.575-.307-.4-.307m0-.485c-.814 0-1.086-.78-.877-1.12.2-.328.426-.24.85-.261.277-.014.453-.196.448-.141-.027.397-.464.448-.643.696-.372.513.541.68.622.519.054-.108.575.307-.4.307m.678.019c.033.036.053.128.056.223-.003.096-.023.188-.056.224-.038.044-.456-.276-1.107-.118-.355.086-.518.346-.824.472-.408.166-.874-.22-.652-.22.177 0 .172-.135.061-.094-.461.174-.634-.144-.855-.243C.007 1.96 0 1.953 0 1.945c0-.009.007-.016.02-.021.22-.1.394-.417.855-.243.111.041.116-.094-.061-.094-.222 0 .244-.386.652-.22.306.126.469.385.824.471.65.159 1.07-.161 1.107-.117m1.155.466c1.604 0 1.01 1.047.58.788-.226-.136-.101-.378.096-.298.03.012.076.06.057.014-.05-.115-.16-.094-.177-.115-.002-.003-.002-.007 0-.012.043-.124.205.026.173-.024-.18-.281-1.879-.354-.729-.353m0-.485c1.604 0 1.01-1.047.58-.789-.225.137-.101.38.096.299.03-.012.076-.059.057-.015-.05.115-.16.095-.176.116-.003.003-.003.007-.001.012.043.124.205-.026.173.023-.18.282-1.878.354-.729.354m-.607.724c.196.141.549.077.56.614.006.292-.39.529-.514.229-.062-.154.128-.28.202-.173.01.017.015.06.026.025.027-.09-.046-.107-.044-.125 0-.003 0-.006.005-.009.086-.07.105.075.111.033.031-.212-.332-.12-.427-.627-.023-.12.03-.004.081.033m-.128-.347H29.01c-.073-.076-.108-.182-.05-.27H3.816c-.012.083-.01.215 0 .27m.128-.616c.196-.141.549-.077.56-.614.006-.292-.39-.528-.513-.228-.063.153.128.28.201.171.011-.016.015-.06.026-.025.028.09-.046.107-.044.127 0 .002 0 .004.005.008.087.07.105-.075.111-.033.032.21-.331.12-.427.627-.023.12.03.004.081-.033m53.135.481c.01-.322.256-.593.159-.862-.045-.12-.314-.226-.39.014-.064.206.104.242.102.848.002.606-.166.643-.102.849.076.24.345.134.39.013.097-.269-.15-.54-.159-.862m.84.243c.813 0 1.085.78.877 1.12-.2.328-.427.24-.85.26-.277.014-.454.197-.45.142.028-.397.465-.448.644-.696.372-.514-.54-.68-.622-.519-.054.107-.575-.307.4-.307m0-.485c.814 0 1.086-.78.878-1.12-.2-.328-.427-.24-.85-.261-.277-.014-.454-.196-.45-.142.028.398.465.449.644.697.372.513-.54.68-.622.519-.054-.108-.575.307.4.307m-.678.019c-.033.036-.052.128-.056.223.003.096.023.188.056.224.038.044.456-.276 1.107-.118.356.086.518.346.824.472.408.166.874-.22.652-.22-.177 0-.172-.136-.06-.094.46.174.634-.144.854-.243.013-.006.02-.012.02-.02 0-.009-.007-.016-.02-.021-.22-.1-.393-.417-.855-.243-.11.04-.116-.094.061-.094.222 0-.244-.386-.652-.22-.306.126-.468.385-.824.471-.65.159-1.069-.161-1.107-.117m-1.155.466c-1.603 0-1.01 1.047-.58.788.226-.136.1-.378-.096-.298-.03.012-.076.06-.057.014.051-.115.161-.094.178-.115.002-.003.002-.007 0-.012-.044-.124-.206.026-.174-.024.181-.281 1.879-.354.729-.353m0-.485c-1.603 0-1.01-1.047-.58-.789.225.137.1.38-.096.298-.03-.011-.076-.058-.057-.014.051.115.16.095.177.116.002.003.002.007.001.012-.044.124-.207-.026-.174.023.181.282 1.879.354.729.354m.608.724c-.197.141-.55.077-.561.614-.005.292.39.528.514.229.062-.154-.128-.28-.202-.173-.012.016-.015.06-.026.025-.028-.09.046-.107.045-.126 0-.002-.002-.005-.005-.008-.087-.07-.106.075-.111.033-.032-.212.33-.12.426-.628.023-.12-.03-.004-.08.034m.127-.347h-23.97c.073-.076.11-.183.051-.27h23.92c.01.083.01.215 0 .27m-.128-.616c-.197-.141-.55-.077-.561-.614-.005-.293.39-.528.514-.229.062.153-.128.28-.202.172-.012-.016-.015-.06-.026-.025-.028.09.046.107.045.127 0 .002-.002.004-.005.008-.087.07-.106-.075-.111-.033-.032.21.33.12.426.627.023.12-.03.004-.08-.033m-24.951.033c.241-.24.132-.676 1.05-.69.5-.006.903.48.39.633-.261.076-.479-.158-.293-.248.027-.015.102-.019.042-.032-.155-.034-.183.056-.215.055a.022.022 0 0 1-.014-.007c-.12-.106.127-.13.056-.137-.36-.038-.205.409-1.073.526-.205.028-.007-.036.057-.1" 
            style="display:inline;fill:#000;fill-opacity:.25;fill-rule:evenodd;stroke:none;stroke-width:.30956"/>
    </g>
</svg>
